<?xml version="1.0" encoding="UTF-8" standalone="no"?>
<svg
   xmlns:dc="http://purl.org/dc/elements/1.1/"
   xmlns:cc="http://creativecommons.org/ns#"
   xmlns:rdf="http://www.w3.org/1999/02/22-rdf-syntax-ns#"
   xmlns:svg="http://www.w3.org/2000/svg"
   xmlns="http://www.w3.org/2000/svg"
   xmlns:xlink="http://www.w3.org/1999/xlink"
   xmlns:sodipodi="http://sodipodi.sourceforge.net/DTD/sodipodi-0.dtd"
   xmlns:inkscape="http://www.inkscape.org/namespaces/inkscape"
   sodipodi:docname="chemreps.svg"
   inkscape:version="0.92.4 (unknown)"
   id="svg1153"
   version="1.1"
   viewBox="0 0 95.250002 50.8"
   height="2in"
   width="3.75in"
   inkscape:export-filename="/home/user/Downloads/cr_lowercase.png"
   inkscape:export-xdpi="103.11437"
   inkscape:export-ydpi="103.11437">
  <defs
     id="defs1147">
    <linearGradient
       inkscape:collect="always"
       id="linearGradient2233">
      <stop
         style="stop-color:#808080;stop-opacity:1"
         offset="0"
         id="stop2229" />
      <stop
         style="stop-color:#ffffff;stop-opacity:1"
         offset="1"
         id="stop2231" />
    </linearGradient>
    <linearGradient
       inkscape:collect="always"
       id="linearGradient2227">
      <stop
         style="stop-color:#808080;stop-opacity:1"
         offset="0"
         id="stop2223" />
      <stop
         style="stop-color:#ffffff;stop-opacity:1"
         offset="1"
         id="stop2225" />
    </linearGradient>
    <linearGradient
       id="linearGradient2256"
       inkscape:collect="always">
      <stop
         id="stop2252"
         offset="0"
         style="stop-color:#333333;stop-opacity:1" />
      <stop
         id="stop2254"
         offset="1"
         style="stop-color:#ffffff;stop-opacity:1" />
    </linearGradient>
    <linearGradient
       id="linearGradient2240"
       inkscape:collect="always">
      <stop
         id="stop2236"
         offset="0"
         style="stop-color:#b3b3b3;stop-opacity:1;" />
      <stop
         id="stop2238"
         offset="1"
         style="stop-color:#ffffff;stop-opacity:1" />
    </linearGradient>
    <linearGradient
       gradientUnits="userSpaceOnUse"
       y2="134.50336"
       x2="30.15465"
       y1="151.34134"
       x1="49.283573"
       id="linearGradient960"
       xlink:href="#linearGradient2240"
       inkscape:collect="always"
       gradientTransform="matrix(3.7795276,0,0,3.7795276,-43.220223,-360.75003)" />
    <linearGradient
       y2="68.489151"
       x2="-72.108986"
       y1="58.896343"
       x1="-118.85432"
       gradientTransform="matrix(0.79276179,-1.1464261e-8,1.1464261e-8,0.79276179,-522.22052,-242.38245)"
       gradientUnits="userSpaceOnUse"
       id="linearGradient1232"
       xlink:href="#linearGradient2256"
       inkscape:collect="always" />
    <linearGradient
       y2="134.50336"
       x2="30.15465"
       y1="151.34134"
       x1="49.283573"
       gradientTransform="matrix(0.98410291,0,0,0.98410291,529.93425,168.17466)"
       gradientUnits="userSpaceOnUse"
       id="linearGradient1234"
       xlink:href="#linearGradient2227"
       inkscape:collect="always" />
    <linearGradient
       y2="134.50336"
       x2="30.15465"
       y1="151.34134"
       x1="49.283573"
       gradientTransform="matrix(0.98410291,0,0,0.98410291,518.16432,154.93673)"
       gradientUnits="userSpaceOnUse"
       id="linearGradient1234-8"
       xlink:href="#linearGradient2233"
       inkscape:collect="always" />
  </defs>
  <sodipodi:namedview
     inkscape:document-rotation="0"
     fit-margin-bottom="0"
     fit-margin-right="0"
     fit-margin-left="0"
     fit-margin-top="0"
     inkscape:window-maximized="1"
     inkscape:window-y="27"
     inkscape:window-x="0"
     inkscape:window-height="1016"
     inkscape:window-width="1920"
     showgrid="false"
     inkscape:current-layer="g989"
     inkscape:document-units="mm"
     inkscape:cy="127.87364"
     inkscape:cx="216.34901"
     inkscape:zoom="2"
     inkscape:pageshadow="2"
     inkscape:pageopacity="0.0"
     borderopacity="1.0"
     bordercolor="#666666"
     pagecolor="#ffffff"
     id="base"
     units="in" />
  <metadata
     id="metadata1150">
    <rdf:RDF>
      <cc:Work
         rdf:about="">
        <dc:format>image/svg+xml</dc:format>
        <dc:type
           rdf:resource="http://purl.org/dc/dcmitype/StillImage" />
        <dc:title />
      </cc:Work>
    </rdf:RDF>
  </metadata>
  <g
     transform="translate(-32.894009,-202.77351)"
     id="layer1"
     inkscape:groupmode="layer"
     inkscape:label="Layer 1">
    <flowRoot
       xml:space="preserve"
       id="flowRoot2363"
       style="font-style:normal;font-weight:normal;font-size:40px;line-height:1.25;font-family:sans-serif;letter-spacing:0px;word-spacing:0px;fill:#000000;fill-opacity:1;stroke:none"
       transform="matrix(0.26458333,0,0,0.26458333,0,87)"><flowRegion
         id="flowRegion2365"><rect
           id="rect2367"
           width="224.25386"
           height="94.954338"
           x="282.84271"
           y="575.50787" /></flowRegion><flowPara
         id="flowPara2369" /></flowRoot>    <flowRoot
       style="font-style:normal;font-weight:normal;font-size:40px;line-height:1.25;font-family:sans-serif;letter-spacing:0px;word-spacing:0px;fill:#000000;fill-opacity:1;stroke:none"
       id="flowRoot945"
       xml:space="preserve"><flowRegion
         id="flowRegion947"><rect
           y="187.60927"
           x="153.54318"
           height="444.46713"
           width="1050.5586"
           id="rect949" /></flowRegion><flowPara
         id="flowPara951" /></flowRoot>    <g
       inkscape:export-ydpi="96"
       inkscape:export-xdpi="96"
       transform="translate(-385.3624,-236.80079)"
       id="g989">
      <circle
         style="fill:url(#linearGradient1234-8);fill-opacity:1;stroke:none;stroke-width:2.4012742;stroke-miterlimit:4;stroke-dasharray:none;stroke-opacity:1"
         id="path1724-3-2-5-4-7-2"
         cx="559.8822"
         cy="298.08575"
         r="9.2620554"
         transform="rotate(18.591956)" />
      <circle
         style="fill:none;fill-opacity:1;stroke:#006eff;stroke-width:1.34800005;stroke-miterlimit:4;stroke-dasharray:none;stroke-opacity:1"
         id="path1724-4-7-9-1-9-1-2"
         cx="-589.24603"
         cy="-296.8605"
         r="8.3042479"
         transform="rotate(-161.40805)" />
      <path
         inkscape:export-ydpi="101.403"
         inkscape:export-xdpi="101.403"
         style="fill:url(#linearGradient1232);fill-opacity:1;stroke:none;stroke-width:3.31609559;stroke-miterlimit:4;stroke-dasharray:none;stroke-opacity:1"
         id="path1720-0-5-7-5-0"
         sodipodi:type="arc"
         sodipodi:cx="-616.43317"
         sodipodi:cy="-195.6869"
         sodipodi:rx="15.455377"
         sodipodi:ry="15.455377"
         sodipodi:start="0"
         sodipodi:end="3.1415927"
         d="m -600.97779,-195.6869 a 15.455377,15.455377 0 0 1 -7.72769,13.38474 15.455377,15.455377 0 0 1 -15.45538,0 15.455377,15.455377 0 0 1 -7.72768,-13.38475 l 15.45537,1e-5 z"
         transform="matrix(-0.44476092,-0.89564933,-0.89564933,0.44476092,0,0)" />
      <path
         style="fill:none;fill-opacity:1;stroke:#006eff;stroke-width:1.35675967;stroke-miterlimit:4;stroke-dasharray:none;stroke-opacity:1"
         id="path1720-6-8-4-8-9-2"
         sodipodi:type="arc"
         sodipodi:cx="617.50299"
         sodipodi:cy="195.99365"
         sodipodi:rx="14.777929"
         sodipodi:ry="14.768411"
         sodipodi:start="0"
         sodipodi:end="3.1415927"
         d="m 632.28092,195.99365 a 14.777929,14.768411 0 0 1 -7.38896,12.78982 14.777929,14.768411 0 0 1 -14.77793,0 14.777929,14.768411 0 0 1 -7.38897,-12.78982 l 14.77793,0 z"
         transform="matrix(0.44528249,0.89539014,0.89320151,-0.4496566,0,0)" />
      <circle
         style="fill:none;fill-opacity:1;stroke:#006eff;stroke-width:1.34764278;stroke-miterlimit:4;stroke-dasharray:none;stroke-opacity:1"
         id="path1724-8-1-9-2-8-1"
         cx="-576.02386"
         cy="-283.47293"
         r="8.3042479"
         transform="rotate(-161.40805)" />
      <circle
         style="fill:url(#linearGradient1234);fill-opacity:1;stroke:none;stroke-width:2.4012742;stroke-miterlimit:4;stroke-dasharray:none;stroke-opacity:1"
         id="path1724-3-2-5-4-7"
         cx="571.65222"
         cy="311.32373"
         r="9.2620554"
         transform="rotate(18.591956)" />
      <g
         aria-label="chem"
         style="font-style:normal;font-weight:normal;font-size:16.99718094px;line-height:1.25;font-family:sans-serif;letter-spacing:0px;word-spacing:0px;fill:#a7a7a7;fill-opacity:1;stroke:#a7a7a7;stroke-width:0.26952907;stroke-miterlimit:4;stroke-dasharray:none;stroke-opacity:1"
         id="text1764-6-9-6-1-6-3">
        <path
           d="m 470.9952,457.73602 q 0.75687,0 1.21272,-0.46445 0.45585,-0.47305 0.49885,-1.34174 h 1.43635 q -0.0516,1.34174 -0.9547,2.22763 -0.89449,0.87729 -2.19322,0.87729 -1.72878,0 -2.64048,-1.08371 -0.90309,-1.09231 -0.90309,-3.24254 v -1.0235 q 0,-2.10722 0.90309,-3.19953 0.9031,-1.10091 2.63187,-1.10091 1.42775,0 2.26204,0.90309 0.84288,0.90309 0.89449,2.46845 h -1.43635 q -0.0516,-1.0321 -0.49885,-1.54815 -0.43865,-0.51606 -1.22133,-0.51606 -1.0149,0 -1.50515,0.67087 -0.49025,0.66227 -0.50745,2.18463 v 1.18692 q 0,1.64277 0.48165,2.32224 0.49025,0.67947 1.53956,0.67947 z"
           style="font-style:normal;font-variant:normal;font-weight:normal;font-stretch:normal;font-size:17.61461067px;font-family:'Roboto Condensed';-inkscape-font-specification:'Roboto Condensed, Normal';font-variant-ligatures:normal;font-variant-caps:normal;font-variant-numeric:normal;font-feature-settings:normal;text-align:start;writing-mode:lr-tb;text-anchor:start;fill:#a7a7a7;fill-opacity:1;stroke:#a7a7a7;stroke-width:0.26952907;stroke-miterlimit:4;stroke-dasharray:none;stroke-opacity:1"
           id="path855" />
        <path
           d="m 477.42006,450.51127 q 0.86868,-1.12671 2.21902,-1.12671 2.46846,0 2.50286,3.29414 v 6.18403 h -1.51375 v -6.11523 q 0,-1.09231 -0.36984,-1.54816 -0.36124,-0.46444 -1.09231,-0.46444 -0.56766,0 -1.02351,0.37844 -0.44725,0.37843 -0.72247,0.9891 v 6.76029 h -1.52236 v -13.21096 h 1.52236 z"
           style="font-style:normal;font-variant:normal;font-weight:normal;font-stretch:normal;font-size:17.61461067px;font-family:'Roboto Condensed';-inkscape-font-specification:'Roboto Condensed, Normal';font-variant-ligatures:normal;font-variant-caps:normal;font-variant-numeric:normal;font-feature-settings:normal;text-align:start;writing-mode:lr-tb;text-anchor:start;fill:#a7a7a7;fill-opacity:1;stroke:#a7a7a7;stroke-width:0.26952907;stroke-miterlimit:4;stroke-dasharray:none;stroke-opacity:1"
           id="path857" />
        <path
           d="m 487.73252,459.03475 q -1.73738,0 -2.66628,-1.03211 -0.92889,-1.0407 -0.94609,-3.04471 v -1.12672 q 0,-2.08141 0.90309,-3.25973 0.91169,-1.18692 2.53726,-1.18692 1.63417,0 2.44265,1.0407 0.80848,1.04071 0.82568,3.24254 v 0.9977 h -5.19493 v 0.21502 q 0,1.49656 0.55906,2.17603 0.56766,0.67947 1.62557,0.67947 0.67086,0 1.17832,-0.24943 0.51605,-0.25803 0.9633,-0.80848 l 0.79128,0.9633 q -0.9891,1.39334 -3.01891,1.39334 z m -0.17202,-8.34286 q -0.9461,0 -1.40195,0.65367 -0.45584,0.64507 -0.51605,2.01261 h 3.66398 v -0.20643 q -0.0602,-1.32453 -0.48165,-1.89219 -0.41284,-0.56766 -1.26433,-0.56766 z"
           style="font-style:normal;font-variant:normal;font-weight:normal;font-stretch:normal;font-size:17.61461067px;font-family:'Roboto Condensed';-inkscape-font-specification:'Roboto Condensed, Normal';font-variant-ligatures:normal;font-variant-caps:normal;font-variant-numeric:normal;font-feature-settings:normal;text-align:start;writing-mode:lr-tb;text-anchor:start;fill:#a7a7a7;fill-opacity:1;stroke:#a7a7a7;stroke-width:0.26952907;stroke-miterlimit:4;stroke-dasharray:none;stroke-opacity:1"
           id="path859" />
        <path
           d="m 494.08857,449.55658 0.0344,0.86008 q 0.85149,-1.0321 2.24483,-1.0321 1.55676,0 2.17603,1.35034 0.87729,-1.35034 2.44265,-1.35034 2.57166,0 2.63187,3.20813 v 6.27004 h -1.51376 v -6.12383 q 0,-1.0149 -0.36123,-1.50515 -0.36124,-0.49885 -1.22133,-0.49885 -0.68807,0 -1.11811,0.53325 -0.43005,0.53326 -0.49886,1.35894 v 6.23564 h -1.53095 v -6.19263 q -0.0258,-1.9352 -1.57396,-1.9352 -1.15252,0 -1.62557,1.15251 v 6.97532 h -1.51376 v -9.30615 z"
           style="font-style:normal;font-variant:normal;font-weight:normal;font-stretch:normal;font-size:17.61461067px;font-family:'Roboto Condensed';-inkscape-font-specification:'Roboto Condensed, Normal';font-variant-ligatures:normal;font-variant-caps:normal;font-variant-numeric:normal;font-feature-settings:normal;text-align:start;writing-mode:lr-tb;text-anchor:start;fill:#a7a7a7;fill-opacity:1;stroke:#a7a7a7;stroke-width:0.26952907;stroke-miterlimit:4;stroke-dasharray:none;stroke-opacity:1"
           id="path861" />
      </g>
      <g
         aria-label="reps"
         style="font-style:normal;font-weight:normal;font-size:16.99718094px;line-height:1.25;font-family:sans-serif;letter-spacing:0px;word-spacing:0px;fill:#006eff;fill-opacity:1;stroke:#006eff;stroke-width:0.26952907;stroke-miterlimit:4;stroke-dasharray:none;stroke-opacity:1"
         id="text1770-7-6-6-6-8-4">
        <path
           d="m 480.5278,467.08159 -0.80848,-0.0688 q -0.9977,0 -1.35034,0.87729 v 6.14963 h -2.44265 v -9.30615 h 2.29644 l 0.0688,1.0063 q 0.57625,-1.17832 1.59116,-1.17832 0.41284,0 0.67087,0.11181 z"
           style="font-style:normal;font-variant:normal;font-weight:bold;font-stretch:normal;font-size:17.61461067px;font-family:'Roboto Condensed';-inkscape-font-specification:'Roboto Condensed, Bold';font-variant-ligatures:normal;font-variant-caps:normal;font-variant-numeric:normal;font-feature-settings:normal;text-align:start;writing-mode:lr-tb;text-anchor:start;fill:#006eff;fill-opacity:1;stroke:#006eff;stroke-width:0.26952907;stroke-miterlimit:4;stroke-dasharray:none;stroke-opacity:1"
           id="path864" />
        <path
           d="m 485.3701,474.21172 q -1.87499,0 -2.9243,-1.11811 -1.04931,-1.11812 -1.04931,-3.19953 v -0.73968 q 0,-2.20183 0.9633,-3.39735 0.9633,-1.19552 2.76089,-1.19552 1.75458,0 2.64047,1.12671 0.88589,1.11812 0.90309,3.31995 v 1.19552 h -4.8423 q 0.0516,1.03211 0.45585,1.51375 0.40424,0.47305 1.24713,0.47305 1.22132,0 2.03841,-0.83428 l 0.9547,1.47075 q -0.44725,0.61926 -1.29874,1.0063 -0.85148,0.37844 -1.84919,0.37844 z m -1.53095,-5.71099 h 2.43405 v -0.22362 q -0.0172,-0.83428 -0.27523,-1.26433 -0.25803,-0.43004 -0.89449,-0.43004 -0.63647,0 -0.9289,0.45584 -0.28383,0.45585 -0.33543,1.46215 z"
           style="font-style:normal;font-variant:normal;font-weight:bold;font-stretch:normal;font-size:17.61461067px;font-family:'Roboto Condensed';-inkscape-font-specification:'Roboto Condensed, Bold';font-variant-ligatures:normal;font-variant-caps:normal;font-variant-numeric:normal;font-feature-settings:normal;text-align:start;writing-mode:lr-tb;text-anchor:start;fill:#006eff;fill-opacity:1;stroke:#006eff;stroke-width:0.26952907;stroke-miterlimit:4;stroke-dasharray:none;stroke-opacity:1"
           id="path866" />
        <path
           d="m 497.29093,469.67906 q 0,2.19322 -0.75688,3.36294 -0.74828,1.16972 -2.23623,1.16972 -1.13532,0 -1.82339,-0.92029 v 4.32624 h -2.43405 v -12.88412 h 2.25343 l 0.086,0.85148 q 0.69667,-1.0235 1.9008,-1.0235 1.48795,0 2.23623,1.08371 0.75688,1.08371 0.77408,3.31994 z m -2.42545,-0.61067 q 0,-1.35034 -0.30103,-1.90939 -0.29243,-0.55906 -0.99771,-0.55906 -0.74827,0 -1.09231,0.62786 v 4.36065 q 0.32684,0.60206 1.10952,0.60206 0.72247,0 0.9977,-0.61066 0.28383,-0.61066 0.28383,-1.90079 z"
           style="font-style:normal;font-variant:normal;font-weight:bold;font-stretch:normal;font-size:17.61461067px;font-family:'Roboto Condensed';-inkscape-font-specification:'Roboto Condensed, Bold';font-variant-ligatures:normal;font-variant-caps:normal;font-variant-numeric:normal;font-feature-settings:normal;text-align:start;writing-mode:lr-tb;text-anchor:start;fill:#006eff;fill-opacity:1;stroke:#006eff;stroke-width:0.26952907;stroke-miterlimit:4;stroke-dasharray:none;stroke-opacity:1"
           id="path868" />
        <path
           d="m 502.8815,471.54545 q 0,-0.30963 -0.30103,-0.56766 -0.29243,-0.26663 -1.31593,-0.71387 -1.50516,-0.61067 -2.07282,-1.26433 -0.55905,-0.65367 -0.55905,-1.62557 0,-1.22133 0.87729,-2.01261 0.88589,-0.79988 2.33944,-0.79988 1.53095,0 2.45125,0.79128 0.92029,0.79128 0.92029,2.12442 h -2.43405 q 0,-1.13532 -0.94609,-1.13532 -0.38704,0 -0.63647,0.24083 -0.24943,0.24082 -0.24943,0.67087 0,0.30963 0.27523,0.55045 0.27523,0.23223 1.29874,0.67087 1.48795,0.55046 2.09861,1.22993 0.61927,0.67087 0.61927,1.74598 0,1.24713 -0.9375,2.004 -0.9375,0.75688 -2.45985,0.75688 -1.02351,0 -1.80619,-0.39564 -0.78268,-0.40424 -1.22993,-1.11811 -0.43864,-0.71388 -0.43864,-1.53956 h 2.31364 q 0.0172,0.63646 0.29243,0.9547 0.28383,0.31823 0.92029,0.31823 0.9805,0 0.9805,-0.88589 z"
           style="font-style:normal;font-variant:normal;font-weight:bold;font-stretch:normal;font-size:17.61461067px;font-family:'Roboto Condensed';-inkscape-font-specification:'Roboto Condensed, Bold';font-variant-ligatures:normal;font-variant-caps:normal;font-variant-numeric:normal;font-feature-settings:normal;text-align:start;writing-mode:lr-tb;text-anchor:start;fill:#006eff;fill-opacity:1;stroke:#006eff;stroke-width:0.26952907;stroke-miterlimit:4;stroke-dasharray:none;stroke-opacity:1"
           id="path870" />
      </g>
    </g>
  </g>
</svg>
